<svg width="294" height="298" viewBox="0 0 294 298" fill="none" xmlns="http://www.w3.org/2000/svg">
<rect x="1.75" y="1.75" width="276.5" height="174.5" rx="13.25" fill="#121212" stroke="url(#paint0_linear_210_107)" stroke-width="3.5"/>
<line x1="33" y1="189.5" x2="247" y2="189.5" stroke="url(#paint1_linear_210_107)" stroke-width="3"/>
<path d="M102.25 35.7394L194.5 89L102.25 142.261L102.25 35.7394Z" fill="#121212" stroke="url(#paint2_linear_210_107)" stroke-width="3.5"/>
<path d="M2.9925 251V218.307C4.5525 217.992 6.1575 217.745 7.8075 217.565C9.4725 217.385 11.2275 217.295 13.0725 217.295C18.0225 217.295 21.7425 218.262 24.2325 220.197C26.7375 222.117 27.99 225.162 27.99 229.332C27.99 233.262 26.775 236.247 24.345 238.288C21.93 240.327 18.3225 241.347 13.5225 241.347C12.9525 241.347 12.4125 241.34 11.9025 241.325C11.3925 241.295 10.86 241.257 10.305 241.212V251H2.9925ZM13.6125 235.857C16.1175 235.857 17.955 235.355 19.125 234.35C20.295 233.33 20.88 231.672 20.88 229.377C20.88 227.067 20.295 225.395 19.125 224.36C17.97 223.31 16.1775 222.785 13.7475 222.785C13.0725 222.785 12.465 222.807 11.925 222.852C11.385 222.882 10.845 222.95 10.305 223.055V235.655C10.86 235.715 11.3925 235.767 11.9025 235.812C12.4125 235.842 12.9825 235.857 13.6125 235.857ZM36.2116 251V217.7H43.5241V244.925H58.8241V251H36.2116ZM62.974 251L73.729 217.7H84.3715L95.1265 251H87.9265L78.6115 220.895H79.3765L70.084 251H62.974ZM70.444 242.112L72.019 236.285H86.059L87.6115 242.112H70.444ZM106.372 251V233.945L107.857 239.322L94.3566 217.7H102.119L111.232 232.415H109.162L118.162 217.7H125.362L112.199 239.322L113.684 234.057V251H106.372ZM168.718 251V223.775H158.211V217.7H186.538V223.775H176.053V251H168.718ZM207.332 251.428C204.092 251.428 201.437 250.91 199.367 249.875C197.297 248.84 195.767 247.272 194.777 245.172C193.787 243.057 193.292 240.402 193.292 237.207V217.7H200.582V237.927C200.582 240.567 201.144 242.48 202.269 243.665C203.394 244.85 205.082 245.442 207.332 245.442C209.582 245.442 211.262 244.85 212.372 243.665C213.497 242.48 214.059 240.567 214.059 237.927V217.7H221.214V237.207C221.214 240.402 220.727 243.057 219.752 245.172C218.777 247.272 217.262 248.84 215.207 249.875C213.152 250.91 210.527 251.428 207.332 251.428ZM240.028 251.383C239.113 251.383 238.108 251.353 237.013 251.293C235.933 251.248 234.838 251.173 233.728 251.068C232.633 250.977 231.605 250.865 230.645 250.73V218.442C231.68 218.217 232.79 218.022 233.975 217.857C235.16 217.677 236.375 217.542 237.62 217.452C238.88 217.347 240.118 217.295 241.333 217.295C244.633 217.295 247.325 217.64 249.41 218.33C251.51 219.005 253.055 220.032 254.045 221.412C255.035 222.777 255.53 224.495 255.53 226.565C255.53 227.795 255.29 228.927 254.81 229.962C254.345 230.982 253.663 231.845 252.763 232.55C251.863 233.255 250.768 233.735 249.478 233.99L249.5 233.697C251.615 233.997 253.295 234.815 254.54 236.15C255.8 237.47 256.43 239.307 256.43 241.662C256.43 243.207 256.138 244.587 255.553 245.802C254.968 247.002 254.03 248.022 252.74 248.862C251.45 249.687 249.755 250.317 247.655 250.752C245.57 251.173 243.028 251.383 240.028 251.383ZM241.985 246.05C243.935 246.05 245.465 245.877 246.575 245.532C247.7 245.187 248.495 244.67 248.96 243.98C249.44 243.29 249.68 242.412 249.68 241.347C249.68 239.742 249.178 238.572 248.173 237.837C247.183 237.087 245.548 236.712 243.268 236.712H237.013V231.245H242.57C244.055 231.245 245.24 231.087 246.125 230.772C247.025 230.442 247.67 229.962 248.06 229.332C248.465 228.702 248.668 227.908 248.668 226.947C248.668 225.432 248.188 224.337 247.228 223.662C246.268 222.972 244.61 222.627 242.255 222.627C241.4 222.627 240.613 222.665 239.893 222.74C239.173 222.8 238.468 222.89 237.778 223.01V245.847C238.543 245.922 239.255 245.975 239.915 246.005C240.575 246.035 241.265 246.05 241.985 246.05ZM264.216 251V217.7H287.593V223.55H271.438V245.15H287.818V251H264.216ZM268.558 236.892V231.042H285.298V236.892H268.558Z" fill="url(#paint3_linear_210_107)"/>
<path d="M4.9 279.8V293H1.46V279.8H4.9ZM31.1725 279.8V293H27.3525L23.2525 285.86L22.2525 283.9H22.2325L22.3125 286.34V293H19.2725V279.8H23.0925L27.1925 286.94L28.1925 288.9H28.2125L28.1325 286.46V279.8H31.1725ZM51.142 279.8C53.2087 279.8 54.7887 280.373 55.882 281.52C56.9887 282.667 57.542 284.293 57.542 286.4C57.542 288.507 56.9887 290.133 55.882 291.28C54.7887 292.427 53.2087 293 51.142 293H45.542V279.8H51.142ZM50.802 290.4C51.922 290.4 52.7354 290.067 53.242 289.4C53.762 288.72 54.022 287.72 54.022 286.4C54.022 285.08 53.762 284.087 53.242 283.42C52.7354 282.74 51.922 282.4 50.802 282.4H48.982V290.4H50.802ZM74.7828 279.8V293H71.3428V279.8H74.7828ZM100.706 293H97.1661L96.2461 290.02H91.7261L90.7861 293H87.3261L91.9661 279.8H96.0861L100.706 293ZM92.3661 287.68H95.6061L93.9861 282.34L92.3661 287.68ZM125.137 279.8V293H121.317L117.217 285.86L116.217 283.9H116.197L116.277 286.34V293H113.237V279.8H117.057L121.157 286.94L122.157 288.9H122.177L122.097 286.46V279.8H125.137ZM162.735 279.8C163.815 279.8 164.735 279.973 165.495 280.32C166.255 280.667 166.835 281.167 167.235 281.82C167.635 282.473 167.835 283.267 167.835 284.2C167.835 285.133 167.635 285.927 167.235 286.58C166.835 287.233 166.255 287.733 165.495 288.08C164.735 288.427 163.815 288.6 162.735 288.6H160.115V293H156.675V279.8H162.735ZM162.195 286.02C162.915 286.02 163.455 285.873 163.815 285.58C164.188 285.273 164.375 284.813 164.375 284.2C164.375 283.587 164.188 283.133 163.815 282.84C163.455 282.533 162.915 282.38 162.195 282.38H160.115V286.02H162.195ZM184.724 290.34H191.344V293H181.284V279.8H184.724V290.34ZM215.843 293H212.303L211.383 290.02H206.863L205.923 293H202.463L207.103 279.8H211.223L215.843 293ZM207.503 287.68H210.743L209.123 282.34L207.503 287.68ZM239.288 279.8L234.628 288.18V293H231.188V288.18L226.528 279.8H230.088L231.948 283.42L232.928 285.62L233.928 283.42L235.788 279.8H239.288ZM251.831 293V279.8H262.111V282.46H255.271V285.14H260.711V287.64H255.271V290.34H262.371V293H251.831ZM282.194 279.8C283.767 279.8 284.987 280.173 285.854 280.92C286.734 281.653 287.174 282.633 287.174 283.86C287.174 285.207 286.74 286.233 285.874 286.94C285.007 287.647 283.787 288 282.214 288L281.894 288.18H279.274V293H275.894V279.8H282.194ZM281.714 285.74C282.38 285.74 282.88 285.607 283.214 285.34C283.547 285.073 283.714 284.647 283.714 284.06C283.714 283.487 283.547 283.067 283.214 282.8C282.88 282.533 282.38 282.4 281.714 282.4H279.274V285.74H281.714ZM283.734 286.46L287.954 293H284.154L280.774 287.22L283.734 286.46Z" fill="white"/>
<defs>
<linearGradient id="paint0_linear_210_107" x1="140" y1="0" x2="140" y2="178" gradientUnits="userSpaceOnUse">
<stop stop-color="#FF0000"/>
<stop offset="0.0001" stop-color="#FF0000"/>
<stop offset="0.59375" stop-color="#770202"/>
<stop offset="1" stop-color="#FF0000"/>
</linearGradient>
<linearGradient id="paint1_linear_210_107" x1="140" y1="191" x2="140" y2="192" gradientUnits="userSpaceOnUse">
<stop stop-color="#FF0000"/>
<stop offset="0.0001" stop-color="#FF0000"/>
<stop offset="0.59375" stop-color="#770202"/>
<stop offset="1" stop-color="#FF0000"/>
</linearGradient>
<linearGradient id="paint2_linear_210_107" x1="198" y1="89" x2="68" y2="89" gradientUnits="userSpaceOnUse">
<stop stop-color="#FF0000"/>
<stop offset="0.0001" stop-color="#FF0000"/>
<stop offset="0.59375" stop-color="#770202"/>
<stop offset="1" stop-color="#FF0000"/>
</linearGradient>
<linearGradient id="paint3_linear_210_107" x1="147" y1="205" x2="147" y2="261" gradientUnits="userSpaceOnUse">
<stop stop-color="#FFC700"/>
<stop offset="1" stop-color="#FF0000"/>
</linearGradient>
</defs>
</svg>
